<svg id="2bd2a2dc-ad2a-475a-a9e7-42e008b1f378" data-name="Layer 1" xmlns="http://www.w3.org/2000/svg" viewBox="0 0 298.3672 69.0771"><title>OpenImg</title><path d="M28.7412,61.4868a25.2618,25.2618,0,0,1-18.5869-7.73A25.4376,25.4376,0,0,1,2.4595,35.1353a25.4419,25.4419,0,0,1,7.6948-18.6221,25.2674,25.2674,0,0,1,18.5869-7.73,25.35,25.35,0,0,1,18.6567,7.73,25.4419,25.4419,0,0,1,7.6948,18.6221,25.4376,25.4376,0,0,1-7.6948,18.6216A25.3439,25.3439,0,0,1,28.7412,61.4868Zm0-7.4487A17.8811,17.8811,0,0,0,42.0225,48.522a18.4089,18.4089,0,0,0,5.4106-13.3867,18.529,18.529,0,0,0-5.4106-13.4219,17.8309,17.8309,0,0,0-13.2813-5.5518A17.7479,17.7479,0,0,0,15.53,21.7134a18.525,18.525,0,0,0-5.4106,13.4219A18.405,18.405,0,0,0,15.53,48.522,17.7976,17.7976,0,0,0,28.7412,54.0381Z" transform="translate(-2.4595 -8.7832)"/><path d="M81.0918,61.4868q-7.8713,0-11.8057-5.06v20.52H61.8374V25.6484h7.4487v4.9189a13.7951,13.7951,0,0,1,5.0947-4.1108,15.0707,15.0707,0,0,1,6.6406-1.5107,17.0089,17.0089,0,0,1,12.3325,5.06q5.165,5.06,5.165,13.2109a17.5752,17.5752,0,0,1-5.2354,13.1758A16.9381,16.9381,0,0,1,81.0918,61.4868ZM79.9673,54.6a10.5115,10.5115,0,0,0,7.9058-3.3379A11.2985,11.2985,0,0,0,91.07,43.146a11.1837,11.1837,0,0,0-3.1973-8.0811,11.1549,11.1549,0,0,0-15.8462,0,11.2467,11.2467,0,0,0-3.1626,8.0811,11.3627,11.3627,0,0,0,3.1626,8.1162A10.4756,10.4756,0,0,0,79.9673,54.6Z" transform="translate(-2.4595 -8.7832)"/><path d="M122.0591,61.4868q-8.2222,0-13.3867-5.2a17.6127,17.6127,0,0,1-5.165-12.93,17.8986,17.8986,0,0,1,5.2705-13.07,18.7654,18.7654,0,0,1,25.93-.2812,17.2993,17.2993,0,0,1,5.13,12.8594v2.9517H110.7451a10.7623,10.7623,0,0,0,3.76,6.5352,11.4818,11.4818,0,0,0,7.5542,2.4595,11.3356,11.3356,0,0,0,6.1841-1.6865,10.9089,10.9089,0,0,0,4.0757-4.6377l6.1836,3.4434Q133.3726,61.4875,122.0591,61.4868Zm-0.2812-29.9355a10.91,10.91,0,0,0-10.6812,7.8706h21.0815a9.5459,9.5459,0,0,0-3.584-5.8325A11.1085,11.1085,0,0,0,121.7778,31.5513Z" transform="translate(-2.4595 -8.7832)"/><path d="M145.8809,60.7842V25.6484h7.4478v4.5679a12.6506,12.6506,0,0,1,10.8223-5.2705q6.6768,0,10.4707,4.0757t3.7949,11.2437v20.519h-7.59V40.8975a10.1812,10.1812,0,0,0-2.1777-6.9219,7.9493,7.9493,0,0,0-6.3242-2.4946,8.3781,8.3781,0,0,0-6.3945,2.7056,10.2184,10.2184,0,0,0-2.5312,7.2729V60.7842h-7.5181Z" transform="translate(-2.4595 -8.7832)"/><path d="M186.3569,60.7842V9.4858h7.66V60.7842h-7.66Z" transform="translate(-2.4595 -8.7832)"/><path d="M202.3774,60.7842V25.6484h7.4482v4.2163q3.5845-4.9182,10.33-4.9189,8.291,0,11.5947,6.3242,3.9346-6.3245,11.876-6.3242,7.0269,0,10.7871,3.9351,3.7573,3.9368,3.7588,10.8218V60.7842h-7.6592V40.1948a9.0894,9.0894,0,0,0-2.1436-6.36,7.7162,7.7162,0,0,0-6.0078-2.354,7.8991,7.8991,0,0,0-6.0078,2.4946A9.7865,9.7865,0,0,0,234,40.9678V60.7842h-7.59V39.8433a8.678,8.678,0,0,0-2.0723-6.1138,7.5855,7.5855,0,0,0-5.8682-2.2485,8.0929,8.0929,0,0,0-6.2187,2.53q-2.3555,2.53-2.3545,7.2378V60.7842h-7.5186Z" transform="translate(-2.4595 -8.7832)"/><path d="M281.5718,61.4868a17.0187,17.0187,0,0,1-12.2627-5.0947,17.5709,17.5709,0,0,1-5.2344-13.1758q0-8.1511,5.1992-13.2109a17.1281,17.1281,0,0,1,12.3682-5.06,14.9867,14.9867,0,0,1,6.5352,1.4756,14.5032,14.5032,0,0,1,5.13,4.0054V25.6484h7.52V59.9409q0,7.94-4.7441,12.93T283.1177,77.86a20.62,20.62,0,0,1-10.8213-2.7056,16.4387,16.4387,0,0,1-6.6055-7.2031l6.9561-3.3027q2.8813,6.3245,10.4707,6.3247a9.6119,9.6119,0,0,0,7.4844-3.0571,11.0145,11.0145,0,0,0,2.7754-7.6943V55.7949a14.0376,14.0376,0,0,1-5.2,4.1812A15.1511,15.1511,0,0,1,281.5718,61.4868ZM282.6255,54.6a10.48,10.48,0,0,0,7.9414-3.3379,11.3664,11.3664,0,0,0,3.1621-8.1162,11.25,11.25,0,0,0-3.1621-8.0811,11.1555,11.1555,0,0,0-15.8467,0,11.18,11.18,0,0,0-3.1973,8.0811,11.2944,11.2944,0,0,0,3.1973,8.1162A10.509,10.509,0,0,0,282.6255,54.6Z" transform="translate(-2.4595 -8.7832)"/><rect x="182.6296" y="7.4699" width="9.3796" height="6.5" style="fill:#fff"/></svg>