<svg xmlns="http://www.w3.org/2000/svg" xmlns:xlink="http://www.w3.org/1999/xlink" preserveAspectRatio="xMidYMid" width="200" height="200" viewBox="0 0 200 200">
  <defs>
    <style>
      .cls-1 {
        fill: #a9a9a9;
      }

      .cls-1, .cls-2, .cls-3, .cls-4, .cls-5, .cls-6 {
        fill-rule: evenodd;
      }

      .cls-2 {
        fill: #eaeaea;
      }

      .cls-3 {
        fill: #d4d4d4;
      }

      .cls-4 {
        fill: #5f91bb;
      }

      .cls-5 {
        fill: #6c60b3;
      }

      .cls-6 {
        fill: #434343;
      }

      .cls-7, .cls-8 {
        font-size: 12px;
      }

      .cls-7 {
        opacity: 0.3;
      }

      .cls-8 {
        font-family: "Myriad Pro";
      }
    </style>
  </defs>
  
  <g>
    <path d="M110.000,177.000 C110.000,177.000 104.875,168.375 106.000,158.000 C106.469,155.250 128.000,157.000 128.000,157.000 C128.000,157.000 128.813,156.812 131.000,160.000 C133.187,163.187 131.000,176.000 131.000,176.000 C131.000,176.000 128.844,166.000 127.000,166.000 C123.875,166.000 119.000,174.000 119.000,174.000 C119.000,174.000 118.969,167.000 117.000,167.000 C112.188,167.125 110.000,177.000 110.000,177.000 Z" class="cls-1"/>
    <path d="M52.000,54.000 C43.250,72.083 29.167,74.500 29.000,79.000 C28.833,83.500 31.750,88.083 39.000,88.000 C46.250,87.917 58.000,82.000 58.000,82.000 C58.000,82.000 54.083,63.750 52.000,54.000 Z" class="cls-1"/>
    <path d="M177.000,54.000 C185.750,72.083 199.833,74.500 200.000,79.000 C200.167,83.500 197.250,88.083 190.000,88.000 C182.750,87.917 171.000,82.000 171.000,82.000 C171.000,82.000 174.917,63.750 177.000,54.000 Z" class="cls-1"/>
    <path d="M70.000,12.000 C70.000,12.000 65.281,21.683 61.000,31.000 C56.781,40.182 53.000,49.000 53.000,49.000 L87.000,41.000 C87.000,41.000 80.031,28.583 75.000,20.000 C72.331,15.448 70.000,12.000 70.000,12.000 Z" class="cls-4"/>
    <path d="M157.000,12.000 C157.000,12.000 162.719,21.683 167.000,31.000 C171.219,40.182 175.000,49.000 175.000,49.000 L140.000,41.000 C140.000,41.000 146.969,28.583 152.000,20.000 C154.669,15.448 157.000,12.000 157.000,12.000 Z" class="cls-4"/>
    <path d="M53.000,47.000 C57.872,43.670 78.143,38.857 90.000,37.000 C101.857,35.143 120.000,32.857 137.000,36.000 C154.000,39.143 169.542,44.598 174.000,47.000 C178.458,49.402 180.429,61.429 179.000,75.000 C177.571,88.571 141.863,163.000 117.000,163.000 C92.137,163.000 56.485,99.581 52.370,87.745 C48.254,75.908 48.020,50.403 53.000,47.000 Z" class="cls-2"/>
    <path d="M108.000,131.000 C109.062,129.937 127.625,129.625 129.000,131.000 C129.701,131.701 127.985,135.595 125.000,140.000 C122.130,144.235 118.000,149.000 118.000,149.000 C118.000,149.000 115.531,146.172 113.000,142.000 C110.253,137.473 107.447,131.553 108.000,131.000 Z" class="cls-5"/>
    <path d="M83.000,69.000 C88.500,69.000 91.000,74.188 91.000,79.000 C91.000,85.979 87.313,89.000 83.000,89.000 C78.687,89.000 74.000,85.417 74.000,78.000 C74.000,74.250 77.500,69.000 83.000,69.000 Z" class="cls-6"/>
    <path d="M144.000,69.000 C138.500,69.000 136.000,74.188 136.000,79.000 C136.000,85.979 139.687,89.000 144.000,89.000 C148.313,89.000 153.000,85.417 153.000,78.000 C153.000,74.250 149.500,69.000 144.000,69.000 Z" class="cls-6"/>
  </g>
</svg>